<?xml version="1.0" standalone="no"?><!DOCTYPE svg PUBLIC "-//W3C//DTD SVG 1.1//EN"
        "http://www.w3.org/Graphics/SVG/1.1/DTD/svg11.dtd">
<svg t="1701154340205" class="icon" viewBox="0 0 1024 1024" version="1.1" xmlns="http://www.w3.org/2000/svg"
     p-id="12528" width="200" height="200">
    <path d="M498.701299 512m-498.701299 0a498.701299 498.701299 0 1 0 997.402597 0 498.701299 498.701299 0 1 0-997.402597 0Z"
          fill="#FFBF00" p-id="12529"></path>
    <path d="M320.246026 744.727273v-54.710857c129.383065-115.858286 205.970286-205.331948 205.970286-278.700884 0-48.274286-26.384623-77.238857-71.440624-77.238857-34.762805 0-63.727377 22.528-87.54535 48.912624l-51.492572-51.492572c43.779325-46.345974 86.255377-72.078961 151.259429-72.078961 90.112 0 149.982753 57.915844 149.982753 146.751169 0 86.242078-71.453922 178.934026-158.347636 263.899429 23.817974-2.579948 55.362494-5.159896 77.238857-5.159896h103.636779V744.727273H320.232727z"
          fill="#333333" p-id="12530"></path>
</svg>