<?xml version="1.0" standalone="no"?><!DOCTYPE svg PUBLIC "-//W3C//DTD SVG 1.1//EN"
        "http://www.w3.org/Graphics/SVG/1.1/DTD/svg11.dtd">
<svg t="1701154344085" class="icon" viewBox="0 0 1024 1024" version="1.1" xmlns="http://www.w3.org/2000/svg"
     p-id="12664" width="200" height="200">
    <path d="M498.701299 512m-498.701299 0a498.701299 498.701299 0 1 0 997.402597 0 498.701299 498.701299 0 1 0-997.402597 0Z"
          fill="#FFBF00" p-id="12665"></path>
    <path d="M468.938805 753.743792c-75.310545 0-126.164779-28.326234-159.63761-66.307324l44.417662-59.844156c28.326234 27.661299 63.07574 48.912623 106.203429 48.912623 48.274286 0 81.095481-23.817974 81.09548-66.307325 0-46.984312-27.661299-75.935584-131.298078-75.935584v-68.235636c87.532052 0 115.858286-30.254545 115.858286-72.743896 0-37.329455-23.179636-59.205818-63.727377-59.844156-34.111169 0.638338-61.785766 16.729766-90.112 42.476052l-48.274285-57.929143c41.199377-36.039481 86.893714-58.580779 142.894545-58.580779 92.040312 0 154.477714 45.056 154.477714 126.803116 0 51.492571-28.964571 88.835325-79.818805 108.783377v3.218286c54.072519 14.801455 95.271896 54.710857 95.271896 117.148259 0 87.532052-76.600519 138.386286-167.350857 138.386286z"
          fill="#333333" p-id="12666"></path>
</svg>